<!DOCTYPE svg PUBLIC "-//W3C//DTD SVG 20010904//EN" "http://www.w3.org/TR/2001/REC-SVG-20010904/DTD/svg10.dtd">
<svg version="1.0" xmlns="http://www.w3.org/2000/svg" width="222px" height="232px" viewBox="0 0 2220 2320"
     preserveAspectRatio="xMidYMid meet">
    <g id="layer101" fill="#ffffff" stroke="none">
        <path
            d="M903 2300 c-99 -20 -252 -69 -274 -89 -8 -6 -48 -31 -89 -54 -140 -80 -284 -225 -374 -377 -60 -101 -125 -273 -145 -384 -21 -116 -10 -390 19 -451 5 -11 23 -63 40 -115 17 -53 41 -113 53 -135 l23 -40 -78 -78 c-43 -42 -78 -82 -78 -89 0 -6 28 -37 63 -70 l62 -58 -57 -55 c-52 -49 -73 -85 -49 -85 4 0 57 -49 117 -110 60 -60 114 -110 120 -110 6 0 72 61 147 135 l135 136 37 -25 c36 -25 163 -78 220 -92 17 -4 32 -10 35 -14 10 -14 129 -32 245 -37 119 -5 313 15 339 36 6 4 42 19 81 31 81 27 178 68 185 80 3 4 34 26 69 48 113 73 242 208 317 332 21 36 43 68 49 72 5 4 7 8 2 8 -4 0 -1 10 8 23 21 33 53 128 75 229 31 136 28 384 -5 521 -29 121 -55 191 -90 242 -14 21 -25 42 -25 47 0 21 -84 130 -157 204 -104 106 -139 135 -198 169 -27 15 -71 41 -96 57 -60 37 -169 73 -292 98 -127 26 -306 26 -434 0z m844 -1051 c15 -5 30 -13 33 -17 3 -4 17 -15 31 -24 15 -9 36 -37 48 -61 50 -103 10 -241 -82 -286 -43 -21 -53 -21 -667 -21 -605 0 -625 1 -664 20 -88 44 -133 150 -106 249 14 51 77 118 133 141 33 13 1239 12 1274 -1z"/>
        <path
            d="M582 1144 c-57 -40 -69 -128 -23 -174 50 -51 126 -52 175 -3 46 46 31 149 -25 179 -37 19 -99 18 -127 -2z"/>
        <path
            d="M1551 1146 c-28 -16 -51 -66 -51 -113 0 -40 41 -88 84 -99 40 -10 91 4 120 33 46 46 31 149 -25 179 -35 17 -96 18 -128 0z"/>
    </g>
</svg>
